<svg width="38" height="38" viewBox="0 0 38 38" fill="none" xmlns="http://www.w3.org/2000/svg">
<g clip-path="url(#clip0_2_106)">
<path d="M13.2377 1.24985C9.44087 2.56699 6.16652 5.06697 3.89557 8.38258C1.62461 11.6982 0.476755 15.6547 0.620593 19.6708C0.764432 23.687 2.19239 27.5513 4.69471 30.6959C7.19704 33.8406 10.6418 36.0999 14.5231 37.142C17.6698 37.954 20.9665 37.9896 24.13 37.2459C26.9958 36.6022 29.6453 35.2253 31.8191 33.25C34.0815 31.1314 35.7237 28.4361 36.5691 25.4541C37.4879 22.2112 37.6515 18.8009 37.047 15.485H19.377V22.8149H29.6103C29.4058 23.9839 28.9675 25.0997 28.3217 26.0954C27.6759 27.0911 26.8359 27.9464 25.8519 28.6099C24.6023 29.4364 23.1936 29.9926 21.7164 30.2427C20.2348 30.5182 18.7152 30.5182 17.2336 30.2427C15.732 29.9322 14.3114 29.3124 13.0625 28.4228C11.0561 27.0025 9.54951 24.9848 8.75781 22.6575C7.95273 20.2866 7.95273 17.7163 8.75781 15.3455C9.32136 13.6836 10.253 12.1705 11.4831 10.9191C12.8909 9.46066 14.6731 8.41819 16.6344 7.90602C18.5956 7.39385 20.66 7.43177 22.6011 8.01563C24.1174 8.48111 25.5041 9.29439 26.6505 10.3906C27.8043 9.24272 28.9562 8.09183 30.1061 6.93798C30.6998 6.31751 31.347 5.72673 31.9319 5.09142C30.182 3.46299 28.128 2.19587 25.8875 1.36267C21.8076 -0.118771 17.3434 -0.158583 13.2377 1.24985Z" fill="white"/>
<path d="M13.2377 1.24983C17.343 -0.159562 21.8072 -0.120798 25.8875 1.35968C28.1284 2.19854 30.1814 3.47176 31.9289 5.10624C31.3352 5.74155 30.7087 6.3353 30.1031 6.9528C28.9512 8.1027 27.8004 9.24863 26.6505 10.3906C25.5041 9.29436 24.1174 8.48109 22.6011 8.01561C20.6606 7.4297 18.5963 7.38959 16.6346 7.89966C14.6728 8.40974 12.8895 9.4503 11.4802 10.9072C10.25 12.1586 9.31839 13.6717 8.75484 15.3336L2.60062 10.5687C4.80346 6.2004 8.61754 2.85896 13.2377 1.24983Z" fill="#E33629"/>
<path d="M0.96781 15.289C1.29859 13.6497 1.84776 12.0621 2.60062 10.5687L8.75484 15.3454C7.94976 17.7163 7.94976 20.2866 8.75484 22.6575C6.70442 24.2408 4.65302 25.8321 2.60062 27.4312C0.715913 23.6797 0.14111 19.4052 0.96781 15.289Z" fill="#F8BD00"/>
<path d="M19.377 15.4821H37.047C37.6515 18.798 37.4879 22.2083 36.5691 25.4511C35.7237 28.4332 34.0815 31.1284 31.8191 33.2471C29.833 31.6974 27.838 30.1596 25.8519 28.6099C26.8365 27.9457 27.677 27.0896 28.3228 26.0928C28.9686 25.096 29.4065 23.979 29.6103 22.8089H19.377C19.3741 20.3686 19.377 17.9253 19.377 15.4821Z" fill="#587DBD"/>
<path d="M2.59766 27.4312C4.65005 25.8479 6.70146 24.2566 8.75187 22.6575C9.54515 24.9856 11.0539 27.0034 13.0625 28.4228C14.3153 29.3083 15.7389 29.923 17.2425 30.2278C18.7241 30.5033 20.2437 30.5033 21.7253 30.2278C23.2025 29.9777 24.6112 29.4216 25.8608 28.595C27.8469 30.1447 29.8419 31.6825 31.828 33.2322C29.6545 35.2085 27.005 36.5865 24.1389 37.2311C20.9754 37.9748 17.6787 37.9391 14.532 37.1272C12.0433 36.4627 9.71872 35.2913 7.70391 33.6864C5.57134 31.9933 3.82955 29.8596 2.59766 27.4312Z" fill="#319F43"/>
</g>
<defs>
<clipPath id="clip0_2_106">
<rect width="38" height="38" fill="white"/>
</clipPath>
</defs>
</svg>
