<svg width="222" height="63" viewBox="0 0 222 63" fill="none" xmlns="http://www.w3.org/2000/svg">
<g clip-path="url(#clip0_2061_484)">
<path d="M213.256 14.6657C218.044 16.7621 220.424 20.7486 221.38 25.6957C222.354 30.732 222.29 35.7652 220.409 40.6353C219.112 43.9969 217.049 46.6536 213.661 48.0727C213.286 48.2297 212.948 48.5961 212.706 48.947C205.789 59.0289 196.216 63.7419 184.26 62.9046C175.172 62.2674 167.847 57.8714 162.3 50.4801C162.118 50.2369 161.994 49.9506 161.913 49.8059C163.522 48.6761 165.034 47.6141 166.667 46.4658C172.19 53.8879 179.703 57.5851 189.006 56.7785C195.327 56.2306 200.714 53.3923 204.909 48.3714C197.922 44.8804 196.262 38.5327 196.198 31.4769C196.135 24.3658 197.913 18.0858 204.954 14.5271C204.954 14.5271 208.998 12.9879 213.253 14.6626L213.256 14.6657ZM202.404 32.7514C202.734 34.1152 203.173 36.7872 204.044 39.3023C204.839 41.5957 206.714 42.9133 209.17 42.8671C211.677 42.8209 213.541 41.451 214.297 39.0591C214.992 36.855 215.506 34.5215 215.643 32.2188C215.827 29.1096 215.531 25.9881 214.055 23.1252C213.035 21.1488 211.454 19.979 209.27 19.9205C207.095 19.862 205.402 20.8841 204.316 22.8296C202.834 25.4925 202.601 28.4416 202.404 32.7514Z" fill="#252B5F"/>
<path d="M75.5455 48.1466V14.5794C75.724 14.5055 75.8601 14.4009 75.9901 14.4009C81.4221 14.484 86.8631 14.4255 92.283 14.7149C96.5082 14.9396 99.569 17.7071 100.28 21.3828C101.093 25.591 99.7504 28.3708 95.9789 30.2702C95.8065 30.3564 95.6341 30.4456 95.2409 30.6457C95.7188 30.8304 96.0031 30.9474 96.2965 31.0521C99.3542 32.1511 101.06 34.4107 101.402 37.6215C101.731 40.7337 100.927 43.5105 98.3834 45.5361C96.0182 47.4201 93.1994 48.0265 90.3322 48.1096C85.4598 48.2513 80.5783 48.1497 75.5455 48.1497V48.1466ZM82.2357 42.0575C85.3085 42.0575 88.2695 42.2022 91.2063 42.0082C93.2206 41.8758 94.4848 40.1458 94.5393 38.1109C94.5937 36.0207 93.5109 34.3398 91.415 34.0936C88.4056 33.7365 85.3539 33.758 82.2357 33.6133V42.0605V42.0575ZM82.1722 28.1614C85.0121 28.1614 87.7191 28.3246 90.3957 28.106C92.3344 27.949 93.5684 26.1943 93.5987 24.2549C93.6289 22.2232 92.5643 20.7332 90.435 20.4962C87.9519 20.2191 85.4295 20.2838 82.9253 20.2653C82.6742 20.2653 82.2115 20.7086 82.2054 20.9518C82.151 23.3406 82.1722 25.7326 82.1722 28.1614Z" fill="#252B5F"/>
<path d="M0 14.6687C5.3866 14.6687 10.628 14.4378 15.8392 14.7334C20.9657 15.0227 24.6707 19.3849 25.0064 24.6028C25.4903 32.148 20.5846 36.5902 13.595 36.8088C11.3932 36.8765 9.18838 36.818 6.82626 36.818V48.0512H0V14.6687ZM6.91699 20.3761V30.9782C9.39404 30.9782 11.7652 31.1075 14.1183 30.9413C16.4834 30.7751 17.9836 28.9188 18.0199 26.5022C18.0289 25.9388 18.035 25.3724 18.0168 24.8091C17.9473 22.7311 16.7889 21.0811 14.7564 20.8194C12.1887 20.49 9.57551 20.5085 6.91699 20.3761Z" fill="#252B5F"/>
<path d="M190.403 21.2411C182.509 18.2089 176.784 21.4104 176.5 28.9526C179.784 26.5822 183.35 26.0712 187.197 27.0963C194.52 29.0511 196.104 38.7512 192.224 44.3478C187.563 51.0649 174.352 50.7263 171.301 41.8758C168.694 34.3121 168.814 26.89 173.372 20.0682C176.872 14.8287 184.775 12.7139 190.515 15.2135C190.86 15.3644 191.295 15.937 191.256 16.2602C191.05 17.9226 190.706 19.5695 190.403 21.2411ZM181.883 31.8124C178.759 31.8124 176.294 34.0874 176.291 36.9811C176.285 40.5459 179.004 43.5074 182.31 43.532C185.446 43.5566 187.947 41.1277 187.972 38.0339C187.999 34.543 185.328 31.8155 181.883 31.8124Z" fill="#252B5F"/>
<path d="M146.881 23.553C145.311 22.6972 143.863 21.906 142.287 21.0472C143.288 18.7506 144.749 16.9313 146.869 15.8846C151.772 13.4681 156.623 13.662 161.377 16.4942C166.386 19.4772 167.372 28.106 160.331 30.8735C160.691 31.0336 160.921 31.1536 161.16 31.2429C164.39 32.425 166.117 34.8631 166.413 38.2371C166.719 41.688 165.478 44.5602 162.635 46.6043C158.398 49.6488 147.601 49.8212 143.506 45.3606C143.37 45.2128 143.194 45.0958 143.058 44.9481C140.796 42.4638 140.88 41.9189 143.772 40.3058C144.467 39.9179 145.163 39.5269 145.886 39.1206C148.708 42.9532 152.452 43.6736 156.665 42.5931C158.749 42.0605 159.759 40.589 159.762 38.6065C159.762 36.6332 158.749 35.2418 156.698 34.5614C155.849 34.2813 154.956 34.0874 154.07 33.9919C153.175 33.8965 152.261 33.9704 151.227 33.9704V29.2235C152.519 29.0634 153.828 29.0295 155.071 28.7186C157.624 28.0783 158.949 26.1019 158.646 23.6453C158.377 21.4566 156.535 19.9728 154.082 19.7696C150.931 19.5049 148.677 20.924 146.881 23.553Z" fill="#252B5F"/>
<path d="M71.9222 35.9006C72.0371 43.5659 66.2089 48.9531 58.1608 48.8177C50.9202 48.6976 45.4096 42.8302 45.5457 35.405C45.6848 27.7643 51.3134 22.4817 59.1619 22.6264C66.7654 22.768 72.0674 28.2815 71.9222 35.9006ZM58.7778 28.4323C54.6282 28.457 52.015 31.2737 52.0029 35.7375C51.9908 39.9333 54.8248 42.9964 58.7233 42.9995C62.8639 43.0025 65.5224 40.0103 65.5042 35.3711C65.4861 31.1229 62.8578 28.4108 58.7778 28.4323Z" fill="#252B5F"/>
<path d="M116.666 28.5617V23.0883H136.525C136.67 25.6033 136.958 27.9152 134.937 30.144C131.535 33.8966 128.528 38.0217 125.362 41.9929C125.25 42.1345 125.189 42.3161 125.044 42.6024H137.336V47.9619H116.53C115.608 45.0836 116.96 43.0734 118.653 41.0386C121.992 37.0243 125.183 32.8807 128.622 28.5586H116.666V28.5617Z" fill="#252B5F"/>
<path d="M28.412 23.0359H34.3097V27.4196C35.1384 26.3575 35.704 25.4956 36.4027 24.766C38.3293 22.7527 40.8063 22.5002 43.3771 22.725C43.6403 22.7465 44.0667 23.2052 44.0758 23.473C44.1363 25.3047 44.109 27.1394 44.109 28.9649C42.5847 28.9649 41.2086 28.7495 39.9232 29.008C36.5569 29.6853 34.963 31.7909 34.9418 35.2911C34.9207 38.9852 34.9388 42.6793 34.9388 46.3704C34.9388 46.9214 34.9388 47.4694 34.9388 48.0881H28.415V23.0359H28.412Z" fill="#252B5F"/>
<path d="M111.969 47.9557H105.808V23.0974H111.969V47.9557Z" fill="#252B5F"/>
<path d="M112.39 16.5896C112.387 18.726 110.911 20.2067 108.785 20.2098C106.492 20.2098 105.052 18.7353 105.058 16.3864C105.061 14.2007 106.601 12.7046 108.803 12.7385C110.938 12.7723 112.393 14.3331 112.39 16.5896Z" fill="#252B5F"/>
<path d="M204.878 14.6102L212.742 14.4286C212.742 14.4286 206.663 3.67564 194.386 0.938914C194.386 0.938914 175.151 -5.22102 162.687 14.0068L167.03 18.6429C167.03 18.6429 172.861 7.3913 185.162 6.5201C197.462 5.64891 204.878 14.6102 204.878 14.6102Z" fill="#C32126"/>
</g>
<defs>
<clipPath id="clip0_2061_484">
<rect width="222" height="63" fill="white"/>
</clipPath>
</defs>
</svg>
