<svg width="624" height="649" viewBox="0 0 624 649" fill="none" xmlns="http://www.w3.org/2000/svg">
<mask id="mask0_1_1551" style="mask-type:luminance" maskUnits="userSpaceOnUse" x="0" y="0" width="656" height="624">
<path d="M655.09 0H0V623.08H655.09V0Z" fill="white"/>
</mask>
<g mask="url(#mask0_1_1551)">
<path d="M135.473 578.716L292.956 644.015L696.229 649L671.336 576.349L510.184 530.864L170.323 522.515L201.375 565.881C201.375 565.881 135.473 560.522 135.473 578.716Z" fill="#E4E5E6"/>
</g>
<path d="M241.181 120.877L239.063 120.254C239.063 110.036 230.841 101.811 220.626 101.811C217.137 101.811 213.898 102.808 211.033 104.553C208.666 100.939 204.929 98.322 200.693 97.0758C201.815 93.9604 202.313 90.4712 202.064 86.8573C201.192 74.5203 191.226 64.5511 178.892 63.8034C164.566 62.9311 152.607 74.0219 152.358 88.1035C150.489 88.1035 148.745 88.3527 147.001 88.8512C143.637 85.4866 139.028 83.3681 133.92 83.3681C123.705 83.3681 115.483 91.5927 115.483 101.811C115.483 101.936 115.483 102.06 115.483 102.185C114.362 101.936 113.241 101.811 111.995 101.811C103.897 101.811 97.0456 107.045 94.5541 114.273L75.1201 120.877C71.8811 121.999 72.6286 126.859 76.1167 126.859H79.6049H94.8032H129.311H181.882H237.942H240.433C243.921 126.984 244.669 121.874 241.181 120.877Z" fill="#B0B7F4"/>
<path d="M92.1863 328.862C92.1863 328.862 138.903 329.235 166.06 386.933C177.77 408.491 175.528 428.056 175.653 446.25C125.075 434.287 107.509 420.579 88.8228 390.796C80.7253 374.471 77.6109 352.414 92.1863 328.862Z" fill="#B0B7F4"/>
<path d="M133.421 389.051L91.439 329.859C91.6881 329.485 91.8127 329.111 92.0618 328.737C92.0618 328.737 92.6847 328.737 93.6813 328.862L118.347 363.629L123.455 339.08C123.455 338.955 123.58 338.831 123.58 338.706C124.327 339.08 125.075 339.579 125.822 339.952L120.341 366.371L155.222 415.594L162.821 382.696C162.946 382.322 163.07 382.073 163.444 381.948C163.943 382.945 164.441 383.942 164.939 384.939L157.215 418.336L175.528 444.131C175.528 444.879 175.528 445.627 175.528 446.374C174.905 446.25 174.407 446.125 173.784 446.001L135.414 391.917L86.8296 386.683C86.4559 385.936 86.2067 385.063 85.833 384.316C86.0822 384.191 86.2067 384.191 86.4559 384.191L133.421 389.051Z" fill="#B0B7F4"/>
<path d="M457.445 120.13H179.39C169.175 120.13 160.953 128.354 160.953 138.573V522.639C160.953 532.858 169.175 541.083 179.39 541.083H457.445C467.661 541.083 475.883 532.858 475.883 522.639V138.448C475.758 128.354 467.536 120.13 457.445 120.13Z" fill="#5B65B3"/>
<path d="M458.318 135.208H175.404V526.503H458.318V135.208Z" fill="white"/>
<path d="M458.318 135.208H175.404V175.833H458.318V135.208Z" fill="#404889"/>
<path d="M383.073 109.039H255.258V161.752H383.073V109.039Z" fill="#404889"/>
<path d="M383.073 135.333H255.258V161.752H383.073V135.333Z" fill="#5B65B3"/>
<path d="M331.124 81.6235H307.206C293.502 81.6235 282.415 92.7143 282.415 106.422V108.914H295.62V107.294C295.62 98.5712 302.721 91.4681 311.441 91.4681H326.764C335.485 91.4681 342.586 98.5712 342.586 107.294V108.914H355.791V106.422C355.915 92.7143 344.828 81.6235 331.124 81.6235Z" fill="#404889"/>
<path d="M242.426 295.838C268.915 295.838 290.388 274.358 290.388 247.861C290.388 221.364 268.915 199.884 242.426 199.884C215.937 199.884 194.464 221.364 194.464 247.861C194.464 274.358 215.937 295.838 242.426 295.838Z" fill="#FBD5CC"/>
<mask id="mask1_1_1551" style="mask-type:luminance" maskUnits="userSpaceOnUse" x="194" y="199" width="97" height="97">
<path d="M242.426 295.838C268.915 295.838 290.388 274.358 290.388 247.861C290.388 221.364 268.915 199.884 242.426 199.884C215.937 199.884 194.464 221.364 194.464 247.861C194.464 274.358 215.937 295.838 242.426 295.838Z" fill="white"/>
</mask>
<g mask="url(#mask1_1_1551)">
<path d="M254.884 261.444C259.493 257.581 262.483 251.849 262.483 245.369C262.483 233.904 253.139 224.558 241.678 224.558C230.217 224.558 220.874 233.904 220.874 245.369C220.874 251.849 223.739 257.581 228.349 261.32C209.413 270.292 199.073 295.714 199.073 295.714H281.792C281.668 295.838 273.196 270.541 254.884 261.444Z" fill="#5B65B3"/>
</g>
<path d="M406.493 214.838H304.216V221.193H406.493V214.838Z" fill="white"/>
<path d="M407.116 241.506H304.839V247.861H407.116V241.506Z" fill="#5B65B3"/>
<path d="M407.116 254.217H304.839V260.572H407.116V254.217Z" fill="#5B65B3"/>
<path d="M406.493 268.174H304.216V274.529H406.493V268.174Z" fill="#5B65B3"/>
<path d="M201.938 326.245H370.739C372.484 326.245 373.978 324.874 373.978 323.005C373.978 321.26 372.608 319.765 370.739 319.765H201.938C200.194 319.765 198.699 321.135 198.699 323.005C198.824 324.749 200.194 326.245 201.938 326.245Z" fill="#BBE1E8"/>
<path d="M370.865 333.722H202.063C200.319 333.722 198.824 335.092 198.824 336.962C198.824 338.706 200.195 340.202 202.063 340.202H370.865C372.609 340.202 374.103 338.831 374.103 336.962C374.103 335.092 372.609 333.722 370.865 333.722Z" fill="#BBE1E8"/>
<path d="M264.103 326.743H371.986C373.107 326.743 373.979 325.372 373.979 323.503C373.979 321.758 373.107 320.263 371.986 320.263H264.103C262.982 320.263 262.109 321.634 262.109 323.503C261.985 325.372 262.857 326.743 264.103 326.743Z" fill="#5B65B3"/>
<path d="M371.114 334.22H217.262C215.642 334.22 214.396 335.591 214.396 337.46C214.396 339.205 215.642 340.7 217.262 340.7H371.114C372.733 340.7 373.979 339.329 373.979 337.46C373.979 335.715 372.733 334.22 371.114 334.22Z" fill="#5B65B3"/>
<path d="M374.477 403.756H199.322V410.111H374.477V403.756Z" fill="#5B65B3"/>
<path d="M374.602 417.588H199.447V423.944H374.602V417.588Z" fill="white"/>
<path d="M374.976 431.794H199.821V438.15H374.976V431.794Z" fill="#5B65B3"/>
<path d="M374.726 455.222H199.571V469.553H374.726V455.222Z" fill="white"/>
<path d="M372.235 482.015H203.185C201.441 482.015 200.07 480.644 200.07 478.899V478.65C200.07 476.905 201.441 475.535 203.185 475.535H372.235C373.979 475.535 375.35 476.905 375.35 478.65V478.899C375.35 480.644 373.979 482.015 372.235 482.015Z" fill="#5B65B3"/>
<path d="M373.979 350.296H198.824V394.285H373.979V350.296Z" fill="#404889"/>
<path d="M445.984 228.67H304.216V235.026H445.984V228.67Z" fill="white"/>
<path d="M446.234 337.211C446.234 342.32 441.375 346.308 439.008 350.42C436.517 354.782 435.395 360.888 431.16 363.255C427.049 365.623 421.194 363.629 416.086 363.629C410.978 363.629 405.123 365.623 401.012 363.255C396.652 360.763 395.655 354.657 393.164 350.42C390.797 346.308 385.938 342.32 385.938 337.211C385.938 332.101 390.797 328.114 393.164 324.001C395.655 319.64 396.777 313.534 401.012 311.166C405.123 308.798 410.978 310.792 416.086 310.792C421.194 310.792 427.049 308.798 431.16 311.166C435.52 313.658 436.517 319.764 439.008 324.001C441.5 328.114 446.234 331.977 446.234 337.211Z" fill="#5B65B3"/>
<path fill-rule="evenodd" clip-rule="evenodd" d="M417.252 349.575C418.994 349.575 420.72 349.232 422.33 348.564C423.94 347.897 425.403 346.92 426.635 345.687C427.867 344.454 428.844 342.991 429.511 341.38C430.178 339.769 430.521 338.043 430.521 336.3C430.521 334.557 430.178 332.83 429.511 331.22C428.844 329.609 427.867 328.146 426.635 326.913C425.403 325.68 423.94 324.703 422.33 324.035C420.72 323.368 418.994 323.025 417.252 323.025C413.733 323.025 410.357 324.424 407.869 326.913C405.38 329.403 403.982 332.779 403.982 336.3C403.982 339.821 405.38 343.197 407.869 345.687C410.357 348.176 413.733 349.575 417.252 349.575ZM416.91 341.669L424.282 332.819L422.017 330.931L415.677 338.54L412.397 335.257L410.312 337.343L414.735 341.768L415.876 342.909L416.91 341.669Z" fill="white"/>
<path d="M446.234 463.804C446.234 468.913 441.375 472.901 439.008 477.013C436.517 481.374 435.395 487.481 431.16 489.848C427.049 492.216 421.194 490.222 416.086 490.222C410.978 490.222 405.123 492.216 401.012 489.848C396.652 487.356 395.655 481.25 393.164 477.013C390.797 472.901 385.938 468.913 385.938 463.804C385.938 458.694 390.797 454.707 393.164 450.594C395.655 446.233 396.777 440.126 401.012 437.759C405.123 435.391 410.978 437.385 416.086 437.385C421.194 437.385 427.049 435.391 431.16 437.759C435.52 440.251 436.517 446.357 439.008 450.594C441.5 454.707 446.234 458.57 446.234 463.804Z" fill="#5B65B3"/>
<path fill-rule="evenodd" clip-rule="evenodd" d="M417.252 476.168C418.994 476.168 420.72 475.824 422.33 475.157C423.94 474.49 425.403 473.512 426.635 472.28C427.867 471.047 428.844 469.584 429.511 467.973C430.178 466.362 430.521 464.636 430.521 462.893C430.521 461.15 430.178 459.423 429.511 457.813C428.844 456.202 427.867 454.739 426.635 453.506C425.403 452.273 423.94 451.295 422.33 450.628C420.72 449.961 418.994 449.618 417.252 449.618C413.733 449.618 410.357 451.016 407.869 453.506C405.38 455.996 403.982 459.372 403.982 462.893C403.982 466.414 405.38 469.79 407.869 472.28C410.357 474.769 413.733 476.168 417.252 476.168ZM416.91 468.262L424.282 459.412L422.017 457.524L415.677 465.133L412.397 461.85L410.312 463.936L414.735 468.361L415.876 469.502L416.91 468.262Z" fill="white"/>
<path d="M446.234 401.854C446.234 406.963 441.375 410.951 439.008 415.063C436.517 419.424 435.395 425.531 431.16 427.898C427.049 430.266 421.194 428.272 416.086 428.272C410.978 428.272 405.123 430.266 401.012 427.898C396.652 425.406 395.655 419.3 393.164 415.063C390.797 410.951 385.938 406.963 385.938 401.854C385.938 396.744 390.797 392.757 393.164 388.644C395.655 384.283 396.777 378.177 401.012 375.809C405.123 373.441 410.978 375.435 416.086 375.435C421.194 375.435 427.049 373.441 431.16 375.809C435.52 378.301 436.517 384.407 439.008 388.644C441.5 392.757 446.234 396.62 446.234 401.854Z" fill="#5B65B3"/>
<path fill-rule="evenodd" clip-rule="evenodd" d="M417.252 414.218C418.994 414.218 420.72 413.875 422.33 413.207C423.94 412.54 425.403 411.562 426.635 410.33C427.867 409.097 428.844 407.634 429.511 406.023C430.178 404.412 430.521 402.686 430.521 400.943C430.521 399.2 430.178 397.473 429.511 395.863C428.844 394.252 427.867 392.789 426.635 391.556C425.403 390.323 423.94 389.346 422.33 388.678C420.72 388.011 418.994 387.668 417.252 387.668C413.733 387.668 410.357 389.067 407.869 391.556C405.38 394.046 403.982 397.422 403.982 400.943C403.982 404.464 405.38 407.84 407.869 410.33C410.357 412.819 413.733 414.218 417.252 414.218ZM416.91 406.312L424.282 397.462L422.017 395.574L415.677 403.183L412.397 399.9L410.312 401.986L414.735 406.411L415.876 407.552L416.91 406.312Z" fill="white"/>
<path d="M416.086 361.013C414.466 361.013 412.971 360.888 411.476 360.514L411.601 359.642C413.096 359.891 414.591 360.016 416.086 360.016V361.013ZM420.82 360.639L420.695 359.767C422.19 359.517 423.56 359.019 425.055 358.396L425.429 359.268C423.809 359.891 422.315 360.265 420.82 360.639ZM406.992 359.268C405.497 358.645 404.126 357.897 402.881 357.025L403.379 356.277C404.625 357.15 405.995 357.773 407.365 358.396L406.992 359.268ZM429.415 357.025L428.917 356.277C430.163 355.405 431.284 354.533 432.405 353.411L433.028 354.034C431.907 355.156 430.661 356.153 429.415 357.025ZM399.268 354.034C398.147 352.913 397.15 351.667 396.278 350.42L397.026 349.922C397.898 351.168 398.77 352.29 399.891 353.411L399.268 354.034ZM436.018 350.42L435.27 349.922C436.143 348.676 436.765 347.305 437.388 345.934L438.26 346.308C437.513 347.679 436.89 349.174 436.018 350.42ZM394.036 346.308C393.413 344.813 392.914 343.317 392.665 341.822L393.537 341.697C393.786 343.193 394.285 344.563 394.908 346.059L394.036 346.308ZM439.506 341.822L438.634 341.697C438.883 340.202 439.132 338.706 439.132 337.211V337.086H440.004V337.211C440.004 338.706 439.88 340.326 439.506 341.822ZM392.167 337.211C392.167 335.591 392.292 334.096 392.665 332.6L393.537 332.725C393.288 334.22 393.164 335.716 393.164 337.211H392.167ZM438.634 332.6C438.385 331.105 437.887 329.734 437.264 328.239L438.136 327.865C438.759 329.36 439.257 330.856 439.506 332.351L438.634 332.6ZM394.783 328.363L393.911 327.99C394.534 326.494 395.281 325.123 396.153 323.877L396.901 324.376C396.153 325.746 395.406 326.993 394.783 328.363ZM435.146 324.376C434.274 323.129 433.402 322.008 432.281 320.886L432.904 320.263C434.025 321.385 435.021 322.631 435.893 323.877L435.146 324.376ZM399.766 320.886L399.143 320.263C400.264 319.142 401.51 318.145 402.756 317.273L403.254 318.02C402.009 318.893 400.887 319.889 399.766 320.886ZM428.793 318.02C427.547 317.148 426.176 316.525 424.806 315.902L425.18 315.029C426.675 315.653 428.045 316.4 429.291 317.273L428.793 318.02ZM407.241 315.902L406.867 315.029C408.362 314.406 409.857 313.908 411.352 313.659L411.476 314.531C410.106 314.905 408.611 315.403 407.241 315.902ZM420.446 314.656C418.951 314.406 417.581 314.282 416.086 314.282L415.961 313.409H416.086C417.581 313.409 419.2 313.534 420.695 313.908L420.446 314.656Z" fill="white"/>
<path d="M416.086 487.606C414.466 487.606 412.971 487.481 411.476 487.107L411.601 486.235C413.096 486.484 414.591 486.609 416.086 486.609V487.606ZM420.82 487.232L420.695 486.359C422.19 486.11 423.56 485.612 425.055 484.989L425.429 485.861C423.809 486.484 422.315 486.858 420.82 487.232ZM406.992 485.861C405.497 485.238 404.126 484.49 402.881 483.618L403.379 482.87C404.625 483.743 405.995 484.366 407.365 484.989L406.992 485.861ZM429.415 483.618L428.917 482.87C430.163 481.998 431.284 481.126 432.405 480.004L433.028 480.627C431.907 481.749 430.661 482.746 429.415 483.618ZM399.268 480.627C398.147 479.506 397.15 478.259 396.278 477.013L397.026 476.515C397.898 477.761 398.77 478.883 399.891 480.004L399.268 480.627ZM436.018 477.013L435.27 476.515C436.143 475.269 436.765 473.898 437.388 472.527L438.26 472.901C437.513 474.272 436.89 475.767 436.018 477.013ZM394.036 472.901C393.413 471.406 392.914 469.91 392.665 468.415L393.537 468.29C393.786 469.786 394.285 471.156 394.908 472.652L394.036 472.901ZM439.506 468.415L438.634 468.29C438.883 466.795 439.132 465.299 439.132 463.804V463.679H440.004V463.804C440.004 465.299 439.88 466.919 439.506 468.415ZM392.167 463.804C392.167 462.184 392.292 460.689 392.665 459.193L393.537 459.318C393.288 460.813 393.164 462.309 393.164 463.804H392.167ZM438.634 459.193C438.385 457.698 437.887 456.327 437.264 454.832L438.136 454.458C438.759 455.953 439.257 457.449 439.506 458.944L438.634 459.193ZM394.783 454.956L393.911 454.582C394.534 453.087 395.281 451.716 396.153 450.47L396.901 450.969C396.153 452.339 395.406 453.585 394.783 454.956ZM435.146 450.969C434.274 449.722 433.402 448.601 432.281 447.479L432.904 446.856C434.025 447.978 435.021 449.224 435.893 450.47L435.146 450.969ZM399.766 447.479L399.143 446.856C400.264 445.735 401.51 444.738 402.756 443.865L403.254 444.613C402.009 445.485 400.887 446.482 399.766 447.479ZM428.793 444.613C427.547 443.741 426.176 443.118 424.806 442.495L425.18 441.622C426.675 442.245 428.045 442.993 429.291 443.865L428.793 444.613ZM407.241 442.495L406.867 441.622C408.362 440.999 409.857 440.501 411.352 440.252L411.476 441.124C410.106 441.498 408.611 441.996 407.241 442.495ZM420.446 441.248C418.951 440.999 417.581 440.875 416.086 440.875L415.961 440.002H416.086C417.581 440.002 419.2 440.127 420.695 440.501L420.446 441.248Z" fill="white"/>
<path d="M416.086 425.656C414.466 425.656 412.971 425.531 411.476 425.157L411.601 424.285C413.096 424.534 414.591 424.659 416.086 424.659V425.656ZM420.82 425.282L420.695 424.409C422.19 424.16 423.56 423.662 425.055 423.039L425.429 423.911C423.809 424.534 422.315 424.908 420.82 425.282ZM406.992 423.911C405.497 423.288 404.126 422.54 402.881 421.668L403.379 420.92C404.625 421.793 405.995 422.416 407.365 423.039L406.992 423.911ZM429.415 421.668L428.917 420.92C430.163 420.048 431.284 419.176 432.405 418.054L433.028 418.677C431.907 419.799 430.661 420.796 429.415 421.668ZM399.268 418.677C398.147 417.556 397.15 416.309 396.278 415.063L397.026 414.565C397.898 415.811 398.77 416.932 399.891 418.054L399.268 418.677ZM436.018 415.063L435.27 414.565C436.143 413.319 436.765 411.948 437.388 410.577L438.26 410.951C437.513 412.322 436.89 413.817 436.018 415.063ZM394.036 410.951C393.413 409.456 392.914 407.96 392.665 406.465L393.537 406.34C393.786 407.836 394.285 409.206 394.908 410.702L394.036 410.951ZM439.506 406.465L438.634 406.34C438.883 404.845 439.132 403.349 439.132 401.854V401.729H440.004V401.854C440.004 403.349 439.88 404.969 439.506 406.465ZM392.167 401.854C392.167 400.234 392.292 398.739 392.665 397.243L393.537 397.368C393.288 398.863 393.164 400.359 393.164 401.854H392.167ZM438.634 397.243C438.385 395.748 437.887 394.377 437.264 392.882L438.136 392.508C438.759 394.003 439.257 395.499 439.506 396.994L438.634 397.243ZM394.783 393.006L393.911 392.632C394.534 391.137 395.281 389.766 396.153 388.52L396.901 389.018C396.153 390.389 395.406 391.635 394.783 393.006ZM435.146 389.018C434.274 387.772 433.402 386.651 432.281 385.529L432.904 384.906C434.025 386.028 435.021 387.274 435.893 388.52L435.146 389.018ZM399.766 385.529L399.143 384.906C400.264 383.785 401.51 382.788 402.756 381.915L403.254 382.663C402.009 383.535 400.887 384.532 399.766 385.529ZM428.793 382.663C427.547 381.791 426.176 381.168 424.806 380.545L425.18 379.672C426.675 380.295 428.045 381.043 429.291 381.915L428.793 382.663ZM407.241 380.545L406.867 379.672C408.362 379.049 409.857 378.551 411.352 378.302L411.476 379.174C410.106 379.548 408.611 380.046 407.241 380.545ZM420.446 379.298C418.951 379.049 417.581 378.925 416.086 378.925L415.961 378.052H416.086C417.581 378.052 419.2 378.177 420.695 378.551L420.446 379.298Z" fill="white"/>
<path d="M59.4233 256.21C64.2818 256.584 68.0191 260.821 67.6453 265.681C67.2716 270.541 63.036 274.28 58.1775 273.906C53.319 273.532 49.5817 269.295 49.9555 264.435C50.3292 259.575 54.5648 255.961 59.4233 256.21ZM58.4267 270.541C61.4165 270.791 64.0326 268.423 64.2818 265.432C64.5309 262.441 62.164 259.824 59.1741 259.575C56.1843 259.326 53.5682 261.694 53.319 264.684C53.1944 267.675 55.4368 270.292 58.4267 270.541Z" fill="#5B65B3"/>
<path d="M90.8162 241.007C94.0551 241.257 96.4221 243.998 96.1729 247.238C95.9238 250.478 93.1831 252.846 89.9441 252.597C86.7051 252.347 84.3382 249.606 84.5873 246.366C84.8365 243.126 87.5772 240.758 90.8162 241.007ZM90.3178 249.107C91.5636 249.232 92.6848 248.235 92.8094 246.864C92.934 245.618 91.9373 244.497 90.567 244.372C89.3212 244.247 88.2 245.244 88.0755 246.615C87.9509 247.861 88.9475 248.983 90.3178 249.107Z" fill="#5B65B3"/>
<path d="M57.8034 298.954C60.2949 299.078 62.2881 301.321 62.039 303.814C61.9144 306.306 59.672 308.3 57.1805 308.051C54.689 307.926 52.6957 305.683 52.9449 303.191C53.0695 300.698 55.3119 298.704 57.8034 298.954ZM57.4297 304.686C58.0525 304.686 58.6754 304.188 58.6754 303.565C58.6754 302.941 58.1771 302.318 57.5542 302.318C56.9314 302.318 56.3085 302.817 56.3085 303.44C56.3085 304.063 56.8068 304.686 57.4297 304.686Z" fill="#5B65B3"/>
<path d="M123.705 459.584C119.968 462.699 114.362 462.201 111.248 458.462C108.133 454.724 108.632 449.116 112.369 446.001C116.106 442.885 121.712 443.384 124.827 447.122C127.941 450.736 127.443 456.344 123.705 459.584ZM114.487 448.618C112.244 450.487 111.871 453.976 113.864 456.344C115.857 458.587 119.221 458.961 121.588 456.967C123.83 455.098 124.204 451.608 122.21 449.241C120.217 446.998 116.854 446.624 114.487 448.618Z" fill="#5B65B3"/>
<path d="M111.746 492.358C109.254 494.352 105.641 494.102 103.648 491.61C101.655 489.118 101.904 485.504 104.396 483.51C106.887 481.516 110.5 481.765 112.493 484.258C114.486 486.625 114.237 490.239 111.746 492.358ZM106.513 486.127C105.517 486.999 105.392 488.495 106.264 489.492C107.136 490.488 108.631 490.613 109.628 489.741C110.624 488.869 110.749 487.373 109.877 486.376C109.005 485.379 107.51 485.255 106.513 486.127Z" fill="#5B65B3"/>
<path d="M95.1769 427.682C93.1836 429.302 90.3184 429.053 88.6989 427.184C87.0794 425.19 87.3285 422.324 89.1972 420.704C91.1904 419.084 94.0557 419.333 95.6752 421.202C97.4192 423.196 97.1701 426.062 95.1769 427.682ZM91.5641 423.32C91.0658 423.694 91.0658 424.442 91.4396 424.94C91.8133 425.439 92.5608 425.439 93.0591 425.065C93.5574 424.691 93.5574 423.944 93.1836 423.445C92.6853 422.947 92.0624 422.947 91.5641 423.32Z" fill="#5B65B3"/>
<path d="M579.779 362.508C575.295 364.626 570.062 362.633 567.945 358.271C565.827 353.785 567.82 348.551 572.18 346.432C576.665 344.314 581.897 346.308 584.015 350.669C586.133 355.031 584.264 360.389 579.779 362.508ZM573.675 349.548C570.934 350.794 569.813 354.034 571.059 356.776C572.305 359.517 575.544 360.639 578.284 359.392C581.025 358.146 582.146 354.906 580.901 352.165C579.655 349.423 576.416 348.177 573.675 349.548Z" fill="#B0B7F4"/>
<path d="M559.847 391.17C556.982 392.54 553.494 391.294 552.123 388.428C550.753 385.562 551.999 382.073 554.864 380.702C557.729 379.331 561.217 380.577 562.588 383.443C563.958 386.31 562.712 389.799 559.847 391.17ZM556.359 383.693C555.238 384.191 554.739 385.686 555.238 386.808C555.736 387.93 557.231 388.428 558.352 387.93C559.473 387.431 559.971 385.936 559.473 384.814C558.975 383.693 557.48 383.194 556.359 383.693Z" fill="#B0B7F4"/>
<path d="M560.346 324.375C558.103 325.497 555.363 324.5 554.241 322.132C553.12 319.889 554.117 317.148 556.484 316.026C558.726 314.905 561.467 315.902 562.588 318.269C563.709 320.637 562.713 323.379 560.346 324.375ZM557.979 319.266C557.356 319.515 557.107 320.263 557.48 320.762C557.73 321.385 558.477 321.634 558.975 321.26C559.474 320.886 559.847 320.263 559.474 319.765C559.1 319.266 558.477 318.892 557.979 319.266Z" fill="#B0B7F4"/>
<path d="M163.818 560.523C163.818 560.523 161.95 575.103 161.825 578.841C168.801 578.841 168.801 578.841 168.801 578.841V577.346C168.801 577.346 170.421 578.966 172.913 578.841C175.404 578.717 190.976 578.841 190.976 578.841C190.976 578.841 191.35 577.844 190.976 576.474C190.602 575.103 182.754 573.109 178.02 570.866C173.286 568.623 173.909 561.146 173.909 561.146L163.818 560.523Z" fill="#E88A30"/>
<path d="M163.818 560.523C163.818 560.523 161.95 575.103 161.825 578.841C168.801 578.841 168.801 578.841 168.801 578.841V577.346C168.801 577.346 170.421 578.966 172.913 578.841C175.404 578.717 190.976 578.841 190.976 578.841C190.976 578.841 191.35 577.844 190.976 576.474C190.602 575.103 182.754 573.109 178.02 570.866C173.286 568.623 173.909 561.146 173.909 561.146L163.818 560.523Z" fill="#E88A30"/>
<path d="M164.94 341.697C164.94 341.697 169.923 346.183 174.906 345.56C179.889 344.937 183.875 341.697 185.37 337.585C186.865 333.472 180.886 331.105 176.899 331.603C172.913 332.102 170.297 329.734 163.071 328.862C153.728 327.865 148.62 336.588 151.112 345.311C153.603 354.034 159.334 356.776 158.213 360.14C157.091 363.629 160.704 361.262 161.452 358.022C162.075 354.657 160.829 347.429 161.078 345.56C161.452 343.815 164.94 341.697 164.94 341.697Z" fill="#324475"/>
<path opacity="0.5" d="M179.889 343.816C179.889 343.816 183.751 341.323 184.623 339.08C185.495 336.837 180.885 335.965 174.906 339.08C168.926 342.196 165.313 335.092 162.946 334.843C160.579 334.469 156.718 335.342 158.213 341.822C156.095 341.822 152.856 345.186 155.97 348.426C159.085 351.666 160.081 359.143 160.081 359.143L174.532 351.168L179.889 343.816Z" fill="#324475"/>
<path d="M182.006 384.939C182.006 384.939 188.733 401.887 192.47 404.13C196.332 406.373 203.184 388.802 203.558 368.365C203.433 364.751 203.433 364.751 203.433 364.751C203.433 364.751 212.403 363.131 212.652 367.368C213.026 371.729 212.527 402.634 208.79 411.731C205.177 420.828 188.982 427.807 179.764 414.224C179.888 396.279 182.006 384.939 182.006 384.939Z" fill="#FFD37E"/>
<path d="M182.006 384.939C182.006 384.939 188.733 401.887 192.47 404.13C196.332 406.373 203.184 388.802 203.558 368.365C203.433 364.751 203.433 364.751 203.433 364.751C203.433 364.751 212.403 363.131 212.652 367.368C213.026 371.729 212.527 402.634 208.79 411.731C205.177 420.828 188.982 427.807 179.764 414.224C179.888 396.279 182.006 384.939 182.006 384.939Z" fill="#C32126"/>
<path d="M161.95 364.003C161.95 364.003 121.961 374.471 138.654 418.585C138.779 444.754 138.779 444.754 138.779 444.754H181.508C181.508 444.754 183.502 395.157 182.38 386.559C181.259 377.96 177.522 369.237 169.923 365.748C162.324 362.134 161.95 364.003 161.95 364.003Z" fill="#C32126"/>
<path d="M182.006 428.056V426.934C182.006 426.934 149.99 422.573 157.34 389.425C157.34 389.425 146.377 403.008 156.343 416.591C162.572 422.822 168.427 429.177 182.006 428.056Z" fill="#9D1A1E"/>
<path d="M138.778 444.754H181.508L181.757 439.147C181.757 439.147 155.596 441.888 138.653 418.71C138.778 442.636 138.778 444.754 138.778 444.754Z" fill="#9D1A1E"/>
<path d="M179.64 341.323C179.64 341.323 180.138 350.545 179.64 354.782C179.141 359.019 173.536 360.389 171.169 359.268C171.044 363.879 171.169 367.368 171.169 367.368C171.169 367.368 166.31 370.359 160.081 366.371C159.957 358.146 160.081 352.289 160.081 352.289C160.081 352.289 157.465 351.417 158.462 347.305C159.458 345.186 161.327 347.305 161.327 347.305C161.327 347.305 160.829 342.943 161.95 341.323C163.071 339.703 165.563 339.205 167.93 341.323C170.172 343.442 175.404 345.311 179.64 341.323Z" fill="#F1B791"/>
<path d="M211.033 365.125C211.033 365.125 213.898 357.399 213.649 354.034C213.524 350.669 207.918 348.8 205.925 348.676C203.932 348.551 202.437 352.289 201.814 354.034C201.191 355.779 206.673 357.648 205.178 364.377L211.033 365.125Z" fill="#F1B791"/>
<path d="M207.794 363.505C210.784 361.386 212.777 354.408 211.282 355.529C209.787 356.651 208.79 358.894 206.922 356.9C205.925 355.903 203.932 355.903 202.312 355.529C203.434 356.9 205.801 359.019 205.302 363.131C206.05 363.879 206.797 364.128 207.794 363.505Z" fill="#F1B791"/>
<path d="M160.953 348.052C160.953 348.052 160.579 346.931 159.956 347.679C159.334 348.426 159.334 350.669 160.455 351.293C160.579 350.296 160.455 348.052 160.953 348.052Z" fill="#F1B791"/>
<path d="M171.168 359.143C171.168 359.143 167.306 358.645 164.565 354.034C166.06 362.757 171.168 367.243 171.168 367.243V359.143Z" fill="#F1B791"/>
<path d="M182.006 429.177C182.006 429.177 189.107 427.059 192.595 425.314C196.084 423.445 197.08 425.065 197.08 426.934C197.08 428.928 195.959 427.682 195.461 429.925C194.962 432.044 195.087 434.411 193.467 435.533C191.848 436.654 181.882 436.53 181.882 436.53L182.006 429.177Z" fill="#F1B791"/>
<path d="M171.168 444.754H181.383C181.383 444.754 192.969 511.798 173.784 561.021C163.195 560.647 163.195 560.647 163.195 560.647C163.195 560.647 164.814 483.261 163.195 468.93C161.575 454.599 171.168 444.754 171.168 444.754Z" fill="#EE4747"/>
<path d="M171.168 444.754H181.383C181.383 444.754 192.969 511.798 173.784 561.021C163.195 560.647 163.195 560.647 163.195 560.647C163.195 560.647 164.814 483.261 163.195 468.93C161.575 454.599 171.168 444.754 171.168 444.754Z" fill="#404889"/>
<path d="M138.779 444.754C138.779 444.754 142.765 524.633 128.812 560.398C142.765 561.021 142.765 561.021 142.765 561.021C142.765 561.021 171.916 483.884 171.169 444.754C146.752 444.754 138.779 444.754 138.779 444.754Z" fill="#252B5F"/>
<path d="M130.806 560.523C130.806 560.523 128.937 575.103 128.812 578.841C135.789 578.841 135.789 578.841 135.789 578.841V577.346C135.789 577.346 137.408 578.966 139.9 578.841C142.391 578.717 157.963 578.841 157.963 578.841C157.963 578.841 158.337 577.844 157.963 576.474C157.59 575.103 149.741 573.109 145.007 570.866C140.398 568.498 140.896 561.146 140.896 561.146L130.806 560.523Z" fill="#E88A30"/>
<path d="M575.917 206.364L558.228 201.629C554.989 194.65 547.888 189.79 539.666 189.79C537.174 189.79 534.807 190.164 532.689 191.036C531.444 183.684 525.838 177.952 518.612 176.332C519.235 173.341 519.36 169.976 518.612 166.612C516.494 156.767 507.899 149.29 497.808 148.667C485.475 147.795 475.01 156.892 473.64 168.73C470.027 170.35 467.037 172.967 465.044 176.456C461.805 173.341 457.32 171.472 452.587 171.472C442.496 171.472 434.274 179.696 434.274 189.79C434.274 189.915 434.274 190.164 434.274 190.289C427.92 191.784 422.813 196.519 420.82 202.75C416.459 204.121 412.099 205.367 408.237 206.489C405.995 207.236 406.493 210.601 408.86 210.601H420.197H456.448H506.155H560.096H569.439H575.295C577.786 210.476 578.284 206.987 575.917 206.364Z" fill="#B0B7F4"/>
</svg>
